HIERARCHY
ROOT SpineBase
{
  OFFSET 0.000000 0.000000 0.000000
  CHANNELS 6 Xposition Yposition Zposition Zrotation Xrotation Yrotation
  JOINT SpineMid
  {
    OFFSET -0.000000 24.928853 0.000000
    CHANNELS 3 Zrotation Xrotation Yrotation
    JOINT SpineShoulder
    {
      OFFSET -0.010422 18.645907 -0.478895
      CHANNELS 3 Zrotation Xrotation Yrotation
      JOINT Neck
      {
        OFFSET -0.075945 6.162485 -0.377839
        CHANNELS 3 Zrotation Xrotation Yrotation
        JOINT Head
        {
          OFFSET 0.346783 8.793565 -5.749412
          CHANNELS 3 Zrotation Xrotation Yrotation
          End Site
          {
            OFFSET 0 0 0
          }
        }
      }
      JOINT ShoulderLeft
      {
        OFFSET -9.083292 -10.648590 -8.049450
        CHANNELS 3 Zrotation Xrotation Yrotation
        JOINT ElbowLeft
        {
          OFFSET -4.532254 -22.953731 2.311770
          CHANNELS 3 Zrotation Xrotation Yrotation
          JOINT WristLeft
          {
            OFFSET -3.319266 -18.979730 1.117367
            CHANNELS 3 Zrotation Xrotation Yrotation
            JOINT HandLeft
            {
              OFFSET 0.934589 -5.472590 0.128941
              CHANNELS 3 Zrotation Xrotation Yrotation
              JOINT HandTipLeft
              {
                OFFSET -1.159071 -5.641554 -0.285728
                CHANNELS 3 Zrotation Xrotation Yrotation
                End Site
                {
                  OFFSET 0 0 0
                }
              }
              JOINT ThumbLeft
              {
                OFFSET 1.126248 -1.635450 -4.630053
                CHANNELS 3 Zrotation Xrotation Yrotation
                End Site
                {
                  OFFSET 0 0 0
                }
              }
            }
          }
        }
      }
      JOINT ShoulderRight
      {
        OFFSET 8.546442 -9.809268 -6.197145
        CHANNELS 3 Zrotation Xrotation Yrotation
        JOINT ElbowRight
        {
          OFFSET -4.046817 -18.390695 -4.443341
          CHANNELS 3 Zrotation Xrotation Yrotation
          JOINT WristRight
          {
            OFFSET -6.043308 22.432025 1.000814
            CHANNELS 3 Zrotation Xrotation Yrotation
            JOINT HandRight
            {
              OFFSET 1.376088 3.727653 -0.755018
              CHANNELS 3 Zrotation Xrotation Yrotation
              JOINT HandTipRight
              {
                OFFSET 0.293275 1.362456 1.090038
                CHANNELS 3 Zrotation Xrotation Yrotation
                End Site
                {
                  OFFSET 0 0 0
                }
              }
              JOINT ThumbRight
              {
                OFFSET 1.878511 -0.502976 -0.905560
                CHANNELS 3 Zrotation Xrotation Yrotation
                End Site
                {
                  OFFSET 0 0 0
                }
              }
            }
          }
        }
      }
    }
  }
  JOINT HipLeft
  {
    OFFSET -5.194159 -0.019208 -2.154973
    CHANNELS 3 Zrotation Xrotation Yrotation
    JOINT KneeLeft
    {
      OFFSET -5.225887 -22.475781 -3.818220
      CHANNELS 3 Zrotation Xrotation Yrotation
      JOINT AnkleLeft
      {
        OFFSET 0.227530 -20.119461 12.158868
        CHANNELS 3 Zrotation Xrotation Yrotation
        JOINT FootLeft
        {
          OFFSET 5.645008 -6.684755 -0.587386
          CHANNELS 3 Zrotation Xrotation Yrotation
          End Site
          {
            OFFSET 0 0 0
          }
        }
      }
    }
  }
  JOINT HipRight
  {
    OFFSET 2.772260 0.243969 -2.676095
    CHANNELS 3 Zrotation Xrotation Yrotation
    JOINT KneeRight
    {
      OFFSET -4.186330 -22.511796 -4.883168
      CHANNELS 3 Zrotation Xrotation Yrotation
      JOINT AnkleRight
      {
        OFFSET 5.135469 -20.388694 14.183217
        CHANNELS 3 Zrotation Xrotation Yrotation
        JOINT FootRight
        {
          OFFSET -0.602609 -9.585663 -0.197178
          CHANNELS 3 Zrotation Xrotation Yrotation
          End Site
          {
            OFFSET 0 0 0
          }
        }
      }
    }
  }
}
MOTION
Frames: 8
Frame Time: 0.033333
170.192780 56.119202 345.845590 0.000000 0.000000 3.742662 -0.000000 0.000000 -3.742662 -0.000000 0.000000 0.000000 -0.000000 0.000000 0.000000 0.000000 0.000000 0.000000 -0.000000 0.000000 0.000000 -0.000000 0.000000 0.000000 -0.000000 0.000000 0.000000 -0.000000 0.000000 0.000000 0.000000 0.000000 0.000000 0.000000 0.000000 0.000000 -0.000000 0.000000 0.000000 -0.000000 0.000000 0.000000 -0.000000 0.000000 0.000000 -0.000000 0.000000 0.000000 0.000000 0.000000 0.000000 0.000000 0.000000 0.000000 -0.000000 0.000000 -3.742662 -0.000000 0.000000 0.000000 -0.000000 0.000000 0.000000 0.000000 0.000000 0.000000 -0.000000 0.000000 -3.742662 -0.000000 0.000000 0.000000 -0.000000 0.000000 0.000000 0.000000 0.000000 0.000000
169.942693 54.959067 346.018049 -0.572024 -2.505562 5.117218 0.066594 -0.156555 -5.146239 0.181421 -0.262059 -0.045698 -0.599143 17.701529 -1.048188 0.000000 0.000000 0.000000 0.307310 2.917973 0.047055 4.278237 1.853276 -0.142450 -6.286554 -3.007600 -0.325981 2.908952 1.799331 0.023616 0.000000 0.000000 0.000000 0.000000 0.000000 0.000000 7.316438 -0.216229 -1.146399 -7.071392 2.992057 1.212860 11.382053 -0.515025 2.649030 4.763998 -19.303456 -10.723415 0.000000 0.000000 0.000000 0.000000 0.000000 0.000000 1.105303 0.303249 -4.748411 0.576421 1.737925 0.206441 1.193232 7.267451 4.752337 0.000000 0.000000 0.000000 4.180210 -2.826672 -5.048648 -7.850934 10.668443 -0.724721 -7.461228 5.626973 1.055051 0.000000 0.000000 0.000000
169.726767 54.016803 346.160754 -1.218157 -5.036939 6.151096 0.139580 -0.314569 -6.244782 0.392398 -0.522160 -0.103239 -0.645483 31.471528 -1.562680 0.000000 0.000000 0.000000 0.639741 5.858549 0.078993 7.252428 3.309374 -0.365850 -10.942145 -5.379157 -0.776953 5.394980 3.106598 0.000525 0.000000 0.000000 0.000000 0.000000 0.000000 0.000000 13.388399 -0.062709 -2.445489 -12.066195 5.500760 2.383756 19.744497 -0.627279 4.901634 1.480024 -29.022158 -15.160701 0.000000 0.000000 0.000000 0.000000 0.000000 0.000000 2.282735 1.154822 -5.613354 1.022914 2.852558 0.371043 2.347708 14.186499 8.946913 0.000000 0.000000 0.000000 7.772688 -4.936050 -6.112806 -14.974900 19.986261 -0.175837 -16.822962 12.758593 2.699660 0.000000 0.000000 0.000000
169.545003 53.292410 346.273707 -1.887966 -7.270103 6.850530 0.208794 -0.481465 -7.039606 0.620677 -0.755196 -0.167409 -0.285364 41.096037 -1.779362 0.000000 0.000000 0.000000 0.970854 8.482393 0.092666 9.133660 4.452012 -0.605754 -14.314562 -7.279208 -1.249766 7.640057 4.023272 -0.033896 0.000000 0.000000 0.000000 0.000000 0.000000 0.000000 17.935809 0.294469 -3.721663 -16.203195 7.328745 3.425551 26.563669 -0.481759 6.628237 -3.233084 -33.983715 -17.750985 0.000000 0.000000 0.000000 0.000000 0.000000 0.000000 3.453446 2.232570 -6.326598 1.282880 3.372400 0.498342 3.536119 19.864525 12.058473 0.000000 0.000000 0.000000 10.730494 -6.517915 -6.942478 -21.222159 27.449141 1.231340 -25.858155 19.341920 4.968800 0.000000 0.000000 0.000000
169.397401 52.785887 346.356906 -2.495236 -8.793212 7.238837 0.256133 -0.667047 -7.529083 0.844304 -0.935989 -0.225968 0.426913 46.867745 -1.863630 0.000000 0.000000 0.000000 2.133710 10.215096 0.051990 9.213315 5.477497 -0.968928 -16.633952 -8.831286 -1.693636 9.780180 4.602773 -0.059057 0.000000 0.000000 0.000000 0.000000 0.000000 0.000000 20.868744 0.586634 -4.695428 -18.843025 8.553737 4.152020 31.601269 -0.285400 7.907572 -7.445572 -36.750805 -19.455126 0.000000 0.000000 0.000000 0.000000 0.000000 0.000000 4.469771 3.142382 -6.850386 1.315126 3.324034 0.589482 4.925071 23.703844 13.758004 0.000000 0.000000 0.000000 12.991926 -7.915948 -7.451568 -26.260856 32.849269 2.970150 -33.004833 24.339436 7.309165 0.000000 0.000000 0.000000
169.283960 52.497235 346.410352 -2.937585 -9.244159 7.348159 0.264997 -0.866235 -7.705898 1.035317 -1.044935 -0.262032 1.451344 48.935474 -1.860905 0.000000 0.000000 0.000000 2.469262 10.994263 0.017465 9.124326 6.150963 -1.161009 -18.043603 -10.125349 -2.084778 11.935908 4.860698 -0.059652 0.000000 0.000000 0.000000 0.000000 0.000000 0.000000 22.185256 0.552811 -5.089039 -19.964135 9.230475 4.484357 35.163727 -0.138109 8.824403 -10.668563 -38.402813 -20.562771 0.000000 0.000000 0.000000 0.000000 0.000000 0.000000 5.167097 3.550766 -7.128186 1.099007 2.728834 0.641119 6.622645 25.442053 13.951898 0.000000 0.000000 0.000000 14.503735 -9.462171 -7.510887 -29.673132 36.204379 4.480677 -38.172063 28.096324 9.407518 0.000000 0.000000 0.000000
169.123229 52.280352 346.463765 -3.428726 -8.297412 7.134235 0.076067 -0.978843 -7.513029 1.109715 -1.018488 -0.275101 4.027757 46.613480 -1.523337 0.000000 0.000000 0.000000 3.537547 9.824291 0.049446 6.729569 7.678244 -1.626243 -18.046956 -13.691679 -2.893104 14.918046 3.348811 0.756224 0.000000 0.000000 0.000000 0.000000 0.000000 0.000000 23.018953 -0.781181 -4.672782 -19.731416 9.235357 4.286029 34.116424 -4.669378 12.345437 -14.512966 -28.717508 -21.431801 0.000000 0.000000 0.000000 0.000000 0.000000 0.000000 5.068937 2.951477 -6.849265 0.707324 3.486792 0.141119 10.060247 17.606991 8.975220 0.000000 0.000000 0.000000 14.511848 -10.564846 -6.973571 -27.012668 36.320270 4.714289 -47.251928 31.105312 10.189439 0.000000 0.000000 0.000000
169.018829 52.318331 346.458034 -3.441233 -6.437638 6.712692 0.028590 -1.160176 -7.037738 1.201293 -0.959335 -0.239657 5.631367 41.505019 -0.753293 0.000000 0.000000 0.000000 3.447248 8.379977 0.046665 4.919951 7.185666 -1.457088 -18.695359 -13.681796 -3.239998 19.266649 4.368615 0.197055 0.000000 0.000000 0.000000 0.000000 0.000000 0.000000 17.801339 1.633610 -3.800424 -14.404175 6.163131 3.084650 33.629055 1.591262 7.202207 -11.536243 -37.692932 -17.611543 0.000000 0.000000 0.000000 0.000000 0.000000 0.000000 7.702966 4.066729 -7.728806 -6.250829 -1.179944 -1.199933 19.404223 14.573120 6.446654 0.000000 0.000000 0.000000 16.632426 -14.428647 -5.880310 -29.285002 35.673523 5.170741 -49.367011 39.370429 16.876814 0.000000 0.000000 0.000000
